<?xml version="1.0" encoding="UTF-8"?>
<svg id="Layer_1" data-name="Layer 1" xmlns="http://www.w3.org/2000/svg" viewBox="0 0 923.08 172.58">
  <defs>
    <style>
      .cls-1 {
        fill: #86bc24;
      }

      .cls-1, .cls-2 {
        stroke-width: 0px;
      }

      .cls-2 {
        fill: #0f0b0b;
      }
    </style>
  </defs>
  <path class="cls-1" d="m874.15,148.12c0-13.51,10.97-24.47,24.47-24.47s24.46,10.96,24.46,24.47-10.95,24.46-24.46,24.46-24.47-10.95-24.47-24.46"/>
  <path class="cls-2" d="m93.9,83.33c0-15.5-2.99-26.99-8.98-34.48-6-7.48-15.08-11.22-27.29-11.22h-12.99v94.76h9.94c13.56,0,23.5-4.02,29.83-12.09,6.32-8.06,9.49-20.38,9.49-36.97m46.33-1.61c0,28.23-7.59,49.99-22.77,65.26-15.18,15.28-36.51,22.91-64.02,22.91H0V.72h57.17c26.52,0,46.99,6.95,61.42,20.83,14.42,13.89,21.64,33.94,21.64,60.17m148.03,88.17h42.53V0h-42.53v169.88Zm102.26-63.37c0,10.83,1.42,19.09,4.24,24.77,2.83,5.69,7.57,8.52,14.24,8.52s11.26-2.84,13.98-8.52c2.72-5.68,4.07-13.94,4.07-24.77s-1.37-18.9-4.13-24.39c-2.76-5.5-7.47-8.25-14.14-8.25s-11.19,2.74-14.02,8.19c-2.82,5.46-4.24,13.61-4.24,24.45m79.82,0c0,20.64-5.41,36.73-16.25,48.27-10.84,11.55-26.01,17.32-45.51,17.32s-33.59-5.9-44.64-17.71c-11.06-11.81-16.59-27.76-16.59-47.88s5.42-36.56,16.26-47.96c10.84-11.4,26.05-17.1,45.63-17.1,12.1,0,22.8,2.64,32.08,7.92,9.28,5.27,16.44,12.83,21.48,22.67,5.04,9.83,7.55,21.32,7.55,34.47m16.89,63.37h42.53V43.7h-42.53v126.19Zm0-141.45h42.53V0h-42.53v28.44Zm128.7,109.26c5.74,0,12.58-1.46,20.56-4.35v31.75c-5.73,2.52-11.19,4.33-16.37,5.39-5.18,1.08-11.26,1.62-18.22,1.62-14.28,0-24.57-3.59-30.89-10.75-6.29-7.16-9.45-18.17-9.45-33.01v-52.02h-14.89v-32.62h14.9V11.49l42.86-7.45v39.68h27.13v32.62h-27.13v49.11c0,8.17,3.85,12.25,11.52,12.25m98.43,0c5.74,0,12.58-1.46,20.56-4.35v31.75c-5.73,2.52-11.18,4.33-16.37,5.39-5.19,1.08-11.25,1.62-18.22,1.62-14.28,0-24.57-3.59-30.88-10.75-6.31-7.16-9.46-18.17-9.46-33.01v-52.02h-14.9v-32.62h14.9V11l42.85-6.97v39.68h27.15v32.62h-27.15v49.11c0,8.17,3.85,12.25,11.53,12.25m74.22-46.55c.58-6.91,2.56-11.97,5.92-15.21,3.38-3.23,7.56-4.84,12.56-4.84,5.45,0,9.78,1.81,13,5.46,3.23,3.63,4.92,8.49,5.05,14.58h-36.54Zm59.97-34.8c-10.11-9.91-24.45-14.87-43.01-14.87-19.5,0-34.51,5.7-45.03,17.1-10.51,11.4-15.77,27.75-15.77,49.06s5.69,36.55,17.03,47.72c11.35,11.17,27.28,16.76,47.81,16.76,9.85,0,18.33-.67,25.44-2.01,7.07-1.32,13.9-3.72,20.54-7.17l-6.53-28.44c-4.82,1.97-9.41,3.48-13.74,4.48-6.26,1.45-13.13,2.18-20.6,2.18-8.2,0-14.67-2-19.41-6.01-4.74-4.01-7.27-9.55-7.56-16.6h76.02v-19.38c0-18.64-5.06-32.92-15.17-42.82M196.67,91.15c.58-6.91,2.56-11.97,5.93-15.21,3.38-3.23,7.56-4.84,12.57-4.84,5.44,0,9.77,1.81,12.99,5.46,3.23,3.63,4.91,8.49,5.06,14.58h-36.54Zm59.98-34.8c-10.12-9.91-24.45-14.87-43.01-14.87-19.51,0-34.51,5.7-45.02,17.1-10.51,11.4-15.78,27.75-15.78,49.06s5.68,36.55,17.03,47.72c11.34,11.17,27.28,16.76,47.8,16.76,9.85,0,18.33-.67,25.44-2.01,7.07-1.32,13.9-3.72,20.54-7.17l-6.54-28.44c-4.82,1.97-9.41,3.48-13.73,4.48-6.27,1.45-13.13,2.18-20.61,2.18-8.19,0-14.67-2-19.41-6.01-4.75-4.01-7.27-9.55-7.56-16.6h76.02v-19.38c0-18.64-5.05-32.92-15.16-42.82"/>
</svg>